<svg width="32" height="32" viewBox="0 0 32 32" fill="none" xmlns="http://www.w3.org/2000/svg">
  <defs>
    <linearGradient id="grad1" x1="0%" y1="0%" x2="100%" y2="100%">
      <stop offset="0%" style="stop-color:#3B82F6;stop-opacity:1" />
      <stop offset="50%" style="stop-color:#8B5CF6;stop-opacity:1" />
      <stop offset="100%" style="stop-color:#EC4899;stop-opacity:1" />
    </linearGradient>
    <filter id="glow">
      <feGaussianBlur stdDeviation="2" result="coloredBlur"/>
      <feMerge> 
        <feMergeNode in="coloredBlur"/>
        <feMergeNode in="SourceGraphic"/>
      </feMerge>
    </filter>
  </defs>
  
  <!-- Fondo circular con gradiente -->
  <circle cx="16" cy="16" r="15" fill="url(#grad1)" filter="url(#glow)"/>
  
  <!-- Icono de cerebro/IA estilizado -->
  <path d="M16 6C12.5 6 10 8.5 10 12C10 13.5 10.5 15 11.5 16C10.5 17 10 18.5 10 20C10 23.5 12.5 26 16 26C19.5 26 22 23.5 22 20C22 18.5 21.5 17 20.5 16C21.5 15 22 13.5 22 12C22 8.5 19.5 6 16 6Z" fill="white" opacity="0.9"/>
  
  <!-- Detalles del cerebro -->
  <circle cx="14" cy="14" r="1.5" fill="#3B82F6"/>
  <circle cx="18" cy="14" r="1.5" fill="#8B5CF6"/>
  <circle cx="16" cy="18" r="1.5" fill="#EC4899"/>
  
  <!-- Herramientas pequeñas -->
  <rect x="8" y="8" width="2" height="2" rx="0.5" fill="white" opacity="0.7"/>
  <rect x="22" y="8" width="2" height="2" rx="0.5" fill="white" opacity="0.7"/>
  <rect x="8" y="22" width="2" height="2" rx="0.5" fill="white" opacity="0.7"/>
  <rect x="22" y="22" width="2" height="2" rx="0.5" fill="white" opacity="0.7"/>
</svg> 